<svg width="280" height="160" viewBox="0 0 112 32" fill="none" xmlns="http://www.w3.org/2000/svg">
<path d="M3.04688 1.67969L3.75 1.71875C7.44792 1.71875 9.76562 1.9401 10.7031 2.38281C12.7344 2.66927 14.5833 3.03385 16.25 3.47656C16.6146 3.6849 17.3438 3.91927 18.4375 4.17969C18.776 4.3099 19.0755 4.6224 19.3359 5.11719C20.2734 5.89844 20.7422 6.99219 20.7422 8.39844L20 11.7578C19.7135 12.487 18.9583 13.776 17.7344 15.625C17.7344 16.1719 15.8203 17.0573 11.9922 18.2812C11.8359 18.4896 11.1589 18.6458 9.96094 18.75C9.54427 18.8802 8.20312 19.0625 5.9375 19.2969V23.8672L5.85938 27.6562C7.26562 27.6562 8.63281 27.9427 9.96094 28.5156V28.6328H10L9.96094 28.6719V29.1016C9.96094 29.1797 10 29.2839 10.0781 29.4141L9.88281 29.8047V30.1953C9.88281 30.4818 9.64844 30.625 9.17969 30.625H7.53906V30.7031C7.53906 30.8333 7.83854 30.9245 8.4375 30.9766V31.1719L7.96875 31.25C6.82292 30.9375 5.03906 30.7812 2.61719 30.7812C2.40885 30.4948 2.27865 30.3516 2.22656 30.3516L1.17188 30.625C1.17188 30.7292 1.3151 30.8073 1.60156 30.8594V30.8984C1.60156 30.9766 1.45833 31.0417 1.17188 31.0938C0.911458 31.0938 0.78125 30.2604 0.78125 28.5938L0.625 27.8906C0.625 27.6302 0.755208 27.5 1.01562 27.5L2.38281 27.6562H2.61719C2.90365 27.6562 3.04688 25.7682 3.04688 21.9922L3.125 20.1172C2.96875 20.1172 2.89062 19.8698 2.89062 19.375L2.8125 18.2031V16.4453C2.8125 16.0547 2.78646 15.651 2.73438 15.2344L2.8125 14.9609L2.65625 14.8047V14.6484L2.89062 14.4141V14.1016L2.73438 13.9062C2.86458 12.1354 2.92969 10.7943 2.92969 9.88281V9.80469C2.79948 9.6224 2.73438 9.29688 2.73438 8.82812V8.32031L2.96875 6.01562V5.97656C2.39583 5.92448 1.69271 5.89844 0.859375 5.89844C0.546875 5.89844 0.338542 5.46875 0.234375 4.60938V4.57031C0.234375 4.41406 0.338542 4.10156 0.546875 3.63281L0.46875 3.08594C0.46875 2.82552 0.677083 2.68229 1.09375 2.65625H1.21094V2.61719L1.01562 2.22656V2.14844C1.04167 1.91406 1.71875 1.75781 3.04688 1.67969ZM4.375 2.22656L3.16406 2.30469V2.38281C3.16406 2.46094 3.98438 2.53906 5.625 2.61719L6.75781 2.53906C6.88802 2.48698 6.95312 2.44792 6.95312 2.42188V2.30469L6.13281 2.22656H4.375ZM7.53906 2.42188L7.65625 2.5H8.35938L8.51562 2.42188C8.51562 2.31771 8.32031 2.2526 7.92969 2.22656C7.66927 2.2526 7.53906 2.31771 7.53906 2.42188ZM13.3594 3.20312L13.2422 3.28125H13.4375L13.3594 3.20312ZM13.2422 3.98438L13.2031 4.02344V4.0625C13.3594 4.14062 13.5286 4.17969 13.7109 4.17969H13.75V4.14062C13.75 4.03646 13.5807 3.98438 13.2422 3.98438ZM2.92969 4.25781V4.33594L3.16406 4.375H3.28125C3.59375 4.32292 3.75 4.25781 3.75 4.17969L3.67188 4.0625H3.35938C3.125 4.0625 2.98177 4.1276 2.92969 4.25781ZM4.84375 4.14062H4.72656V4.17969H4.84375V4.14062ZM5.625 4.41406H5.42969V4.49219C5.42969 4.7526 5.625 4.88281 6.01562 4.88281L7.07031 4.76562V4.72656C7.07031 4.54427 6.58854 4.4401 5.625 4.41406ZM15 4.53125L14.9609 4.57031V4.60938C15.3776 4.94792 15.6771 5.11719 15.8594 5.11719V4.96094C15.8594 4.77865 15.5729 4.63542 15 4.53125ZM3.98438 4.60938L3.86719 4.72656V4.76562C4.02344 5 4.25781 5.11719 4.57031 5.11719H4.88281L5.07812 4.88281V4.80469C5.07812 4.72656 4.85677 4.66146 4.41406 4.60938H3.98438ZM13.5156 4.88281H13.4375V5C13.4375 5.13021 13.5286 5.19531 13.7109 5.19531H13.75V4.96094L13.5156 4.88281ZM3.28125 5.03906L3.16406 5.19531C3.16406 5.22135 3.28125 5.26042 3.51562 5.3125C3.69792 5.28646 3.78906 5.2474 3.78906 5.19531L3.71094 5.03906H3.28125ZM5.54688 5.625V5.89844V6.01562V6.17188L5.46875 8.125C5.46875 9.55729 5.6901 11.6797 6.13281 14.4922L6.25 16.4062C7.03125 16.4062 8.41146 16.1719 10.3906 15.7031C11.1979 15.7031 12.2526 15.2474 13.5547 14.3359C14.4922 13.8672 15.2995 13.2943 15.9766 12.6172C16.7057 11.5495 17.0703 10.5599 17.0703 9.64844C17.1484 9.64844 17.1875 9.45312 17.1875 9.0625V8.78906C17.1875 8.47656 16.3151 7.79948 14.5703 6.75781C12.1224 6.0026 10.5208 5.48177 9.76562 5.19531L8.94531 5.11719C6.9401 5.11719 5.80729 5.28646 5.54688 5.625ZM4.72656 5.58594H4.64844V5.89844H4.72656L4.76562 5.78125V5.70312L4.72656 5.58594ZM15.9766 6.09375H15.9375V6.17188C16.1458 6.45833 16.3932 6.60156 16.6797 6.60156V6.36719C16.3932 6.1849 16.1589 6.09375 15.9766 6.09375ZM18.0469 6.09375L17.9297 6.17188V6.25C18.0078 6.38021 18.099 6.44531 18.2031 6.44531L18.2812 6.36719V6.32812L18.0859 6.09375H18.0469ZM16.6797 7.34375H16.4453V7.46094C16.4714 7.5651 16.6016 7.61719 16.8359 7.61719H17.0312L17.0703 7.57812H17.1484C17.1484 7.42188 16.9922 7.34375 16.6797 7.34375ZM17.8125 8.125V8.28125L18.0469 8.4375L18.125 8.35938C18.0469 8.20312 17.9427 8.125 17.8125 8.125ZM20.1953 8.35938L20.1172 8.4375C20.1432 8.61979 20.2083 8.71094 20.3125 8.71094H20.3906L20.4688 8.4375L20.3125 8.35938H20.1953ZM19.2578 9.41406L19.1406 9.49219V9.57031L19.2578 9.6875H19.3359V9.49219L19.2578 9.41406ZM16.5625 13.3594L16.6016 13.4375C16.9922 13.125 17.1875 12.8516 17.1875 12.6172H17.0312C16.7188 12.9297 16.5625 13.1771 16.5625 13.3594ZM4.72656 12.6562L4.64844 12.7734V12.8906H4.72656L4.84375 12.7734V12.6562H4.72656ZM13.6328 15.0781L13.7109 15.1562C13.8151 15.1302 13.9062 15.026 13.9844 14.8438V14.7266H13.8672C13.7109 14.8047 13.6328 14.9219 13.6328 15.0781ZM16.9922 15.0391L16.9141 15.1562V15.1953L16.9922 15.3125H17.0312L17.1875 15.1562L17.0703 15.0391H16.9922ZM11.0547 16.3281V16.4453H11.1719C11.9271 16.3151 12.3047 16.1979 12.3047 16.0938V16.0156H12.0312C11.4583 16.0417 11.1328 16.1458 11.0547 16.3281ZM14.9219 16.5625V16.6016H15.1172C15.4557 16.6016 15.8724 16.4583 16.3672 16.1719V16.0156H16.1719C15.3385 16.25 14.9219 16.4323 14.9219 16.5625ZM13.5547 16.7969L13.3594 16.9922H13.4375C13.6198 16.9922 13.724 16.9401 13.75 16.8359V16.7969H13.5547ZM11.7578 17.3047L11.6797 17.4219L11.9922 17.5391H12.0703L12.1484 17.4219L12.0703 17.3047H11.7578ZM8.63281 17.8906V17.9688H8.82812L9.6875 17.6953C10.599 17.6693 11.0807 17.5911 11.1328 17.4609V17.4219H10.7422C9.72656 17.4219 9.02344 17.5781 8.63281 17.8906ZM6.52344 17.6953L6.40625 17.8125C6.40625 17.9167 6.57552 17.9688 6.91406 17.9688C7.17448 17.9427 7.30469 17.8906 7.30469 17.8125L7.1875 17.6953H6.52344ZM4.375 24.4141C4.375 24.987 4.41406 25.2734 4.49219 25.2734H4.57031V24.9219V23.5938L4.49219 23.5156C4.41406 23.5156 4.375 23.8151 4.375 24.4141ZM4.57031 25.9375L4.49219 25.8594C4.41406 26.0156 4.375 26.1719 4.375 26.3281V26.4453H4.49219L4.57031 26.3672V25.9375ZM2.07031 28.3984L1.99219 28.4766C2.01823 28.5807 2.10938 28.6328 2.26562 28.6328C2.44792 28.6068 2.53906 28.5547 2.53906 28.4766V28.3984H2.07031ZM6.21094 29.3359H5.74219V29.4141L6.32812 29.4922H6.83594V29.4141L6.21094 29.3359ZM6.67969 29.7266H6.36719V29.8438H6.52344L6.67969 29.8047V29.7266ZM8.08594 29.8047L7.8125 29.8438V29.9219L7.89062 30H8.71094V29.9219L8.08594 29.8047ZM7.34375 30.3516H7.1875V30.4688H7.34375V30.3516ZM20.5859 1.40625L21.3672 1.36719C24.7005 1.4974 26.3672 1.79688 26.3672 2.26562L26.6406 8.00781C26.6406 8.52865 26.3542 9.84375 25.7812 11.9531C25.651 12.7865 25.5859 13.3333 25.5859 13.5938V13.8281H25.7031C27.4479 12.474 29.4401 11.7969 31.6797 11.7969C32.3307 11.7969 33.5286 12.1745 35.2734 12.9297C35.612 13.1901 36.0417 13.724 36.5625 14.5312C36.7448 14.6354 36.862 14.8047 36.9141 15.0391L36.875 15.4297C37.6042 16.0026 37.9688 17.0312 37.9688 18.5156C38.0469 18.5156 38.112 19.7917 38.1641 22.3438V22.4219C38.1641 22.8906 37.9557 24.3229 37.5391 26.7188L37.3828 27.4609H38.2031C39.0625 27.487 39.4922 27.6042 39.4922 27.8125C39.4922 27.9167 39.0755 28.0078 38.2422 28.0859C38.2422 28.1901 38.5417 28.3073 39.1406 28.4375L39.2969 28.6719V28.75C38.8021 28.8281 38.5547 28.8932 38.5547 28.9453C39.0495 29.0495 39.2969 29.2188 39.2969 29.4531C39.2969 30.6771 38.9453 31.2891 38.2422 31.2891L37.9297 31.3281C36.9141 31.3281 36.4062 31.1849 36.4062 30.8984C36.4062 30.8203 35.8724 30.7552 34.8047 30.7031C34.3359 30.4427 33.9583 30.2734 33.6719 30.1953L33.6328 30.0391C33.6328 28.8932 33.8021 27.2266 34.1406 25.0391C34.2708 23.763 34.5052 22.4089 34.8438 20.9766L34.7656 19.6094L34.8828 19.4141C34.5443 19.1536 34.375 18.776 34.375 18.2812C34.0625 17.7344 33.8021 17.3047 33.5938 16.9922C32.6823 16.6016 32.1354 16.4062 31.9531 16.4062C30.625 15.9635 29.3229 16.0156 28.0469 16.5625C26.3542 17.7083 25.5078 18.5547 25.5078 19.1016L25.2734 21.6406L25.3516 24.2578C25.1953 26.1849 25 27.1484 24.7656 27.1484L24.7266 27.3438L24.8828 27.3828H25.0391L25.7031 27.1094C26.3281 27.2135 26.6406 27.4219 26.6406 27.7344L26.3672 27.9688V28.125C26.3932 28.2031 26.5625 28.2943 26.875 28.3984L26.9531 28.5938C26.7969 29.9479 26.6016 30.625 26.3672 30.625H26.25C25.9115 30.3906 24.5182 30.2083 22.0703 30.0781C20.3255 29.9219 19.4531 29.6615 19.4531 29.2969V28.6719C19.4271 28.5677 19.5052 28.3724 19.6875 28.0859V27.8516C19.375 27.4089 19.2188 27.1484 19.2188 27.0703C19.349 26.9661 19.974 26.901 21.0938 26.875C21.276 26.875 21.4062 26.3672 21.4844 25.3516C21.6667 25.2474 21.8229 24.8438 21.9531 24.1406C22.1094 23.9323 22.1875 23.7109 22.1875 23.4766V23.4375C22.1875 23.0208 22.0573 22.6042 21.7969 22.1875L22.1875 21.25C22.3698 21.25 22.474 18.3984 22.5 12.6953L23.0469 6.95312V5.23438C23.0469 4.66146 22.8646 4.375 22.5 4.375L21.2109 4.33594L20.3906 4.57031C20.2604 4.57031 20.1693 4.21875 20.1172 3.51562V3.125C20.1172 1.97917 20.2734 1.40625 20.5859 1.40625ZM20.5078 29.2188V29.2969H20.5859C20.9245 29.2969 21.5625 29.4661 22.5 29.8047C23.9323 29.8307 25.0651 29.9219 25.8984 30.0781H26.0156L26.1328 29.9219V29.8828C26.1328 29.6224 24.8958 29.4922 22.4219 29.4922C22.0052 29.2318 21.4844 29.1016 20.8594 29.1016C20.625 29.1276 20.5078 29.1667 20.5078 29.2188ZM36.6797 25.7031H36.7969C36.9792 25.7031 37.2266 24.7266 37.5391 22.7734C37.5391 22.487 37.4479 22.3047 37.2656 22.2266H37.1094C36.9531 22.2266 36.8099 23.3854 36.6797 25.7031ZM35.5078 17.5781L35.7422 16.9531C35.8464 17.1615 35.9115 17.3177 35.9375 17.4219C36.0417 17.6042 36.1458 17.6953 36.25 17.6953V17.3828C36.25 16.862 35.8854 16.25 35.1562 15.5469L34.9609 15.5078H34.8047V15.6641C35.1693 16.0286 35.4688 16.4193 35.7031 16.8359L35.3516 17.4219L35.5078 17.5781ZM23.9062 8.24219C23.8281 8.39844 23.7891 8.86719 23.7891 9.64844C24.1016 9.64844 24.2578 9.88281 24.2578 10.3516H24.2969C24.375 10.1953 24.4141 9.92188 24.4141 9.53125V9.02344H24.375L24.2188 9.45312H24.0625L24.0234 9.21875C24.0755 9.01042 24.1276 8.90625 24.1797 8.90625L24.4141 8.98438C24.362 8.82812 24.1927 8.58073 23.9062 8.24219ZM21.9141 26.7578C21.9141 26.9401 22.3438 27.0703 23.2031 27.1484H23.2812L23.3984 27.0703V26.7578C23.3464 26.6797 23.2422 26.6406 23.0859 26.6406H22.3047C22.0443 26.6406 21.9141 26.6797 21.9141 26.7578ZM34.2969 28.75H34.375L34.7656 28.7891L35.9766 28.75L36.0156 28.7109V28.6719C35.7552 28.4896 35.3385 28.3984 34.7656 28.3984C34.5312 28.3984 34.375 28.5156 34.2969 28.75ZM20.0781 27.9688V28.0859H20.3516H21.7188C21.7188 27.8776 21.3151 27.7604 20.5078 27.7344C20.2474 27.7344 20.1042 27.8125 20.0781 27.9688ZM31.2109 15.0781L30.9375 15.1172V15.3125C31.5104 15.599 31.875 15.7422 32.0312 15.7422L32.1875 15.5469C32.1875 15.3906 31.862 15.2344 31.2109 15.0781ZM21.4453 1.95312V2.07031C21.7578 2.30469 22.2005 2.42188 22.7734 2.42188L22.8516 2.26562C22.3047 2.05729 21.8359 1.95312 21.4453 1.95312ZM24.7656 17.5391V17.8516H24.8828C25.1432 17.8516 25.3125 17.6172 25.3906 17.1484L25.4297 17.1094V16.9141H25.3906C25.2083 17.0182 25 17.2266 24.7656 17.5391ZM25.1562 2.14844L25 2.34375C25.0781 2.47396 25.1953 2.57812 25.3516 2.65625H25.3906C25.5729 2.65625 25.6901 2.59115 25.7422 2.46094V2.38281L25.5859 2.14844H25.1562ZM34.4922 29.7266H34.0625V29.8438C34.0885 30 34.2578 30.0781 34.5703 30.0781H34.9609V29.9609C34.9609 29.8828 34.8047 29.8047 34.4922 29.7266ZM25.4297 28.0859L25.3516 28.125V28.3203L25.5859 28.5156H25.7812L25.9766 28.3594V28.3203L25.7031 28.0859H25.4297ZM22.2266 3.35938L22.0312 3.39844V3.47656C22.0573 3.55469 22.1484 3.59375 22.3047 3.59375H22.6172L22.8516 3.51562V3.39844L22.6172 3.35938H22.2266ZM35.1172 27.3828V27.5391H35.4297L35.5469 27.4609V27.2656L35.4297 27.1484C35.2734 27.1484 35.1693 27.2266 35.1172 27.3828ZM25.1953 18.2422L25.3125 18.3594H25.5859C25.7422 18.3594 25.8333 18.3203 25.8594 18.2422L25.7422 18.125H25.5859C25.3776 18.125 25.2474 18.1641 25.1953 18.2422ZM34.1406 13.0859V13.2031C34.2448 13.3854 34.4401 13.4766 34.7266 13.4766V13.3594C34.6224 13.1771 34.4271 13.0859 34.1406 13.0859ZM33.4375 16.0547V16.1328C33.4375 16.3672 33.5677 16.4844 33.8281 16.4844V16.4453C33.8021 16.1849 33.6719 16.0547 33.4375 16.0547ZM24.2969 5.89844L24.2188 6.01562V6.28906L24.2969 6.40625L24.4531 6.28906V6.05469L24.2969 5.89844ZM21.9141 2.73438H21.7969V2.77344L21.8359 2.92969H22.3438V2.77344L21.9141 2.73438ZM26.7188 15.4297H26.8359C27.1224 15.2214 27.2656 15.0911 27.2656 15.0391H27.1484C26.888 15.1693 26.7448 15.2995 26.7188 15.4297ZM37.1094 16.5234L36.9922 16.6406V16.7188L37.2266 16.875H37.3047L37.3828 16.7969L37.1875 16.5234H37.1094ZM32.0703 12.2266H32.0312V12.2656C32.0312 12.3438 32.2005 12.4219 32.5391 12.5V12.4609C32.5391 12.3307 32.3828 12.2526 32.0703 12.2266ZM24.2578 7.07031L24.1797 7.1875V7.30469L24.2969 7.42188L24.4531 7.38281V7.26562L24.2969 7.07031H24.2578ZM30.1953 14.3359H29.9219V14.4141L30.0391 14.5312H30.3125V14.4531L30.1953 14.3359ZM28.3984 16.1328L28.2422 16.2891V16.4062H28.3594L28.5156 16.25V16.1328H28.3984ZM34.375 29.1797L34.2578 29.2969V29.3359L34.375 29.4531H34.4531L34.4922 29.2969L34.375 29.1797ZM20.8594 2.46094H20.8203V2.77344H20.8594L20.9766 2.65625V2.53906L20.8594 2.46094ZM37.3828 21.5625L37.2656 21.6406L37.3828 21.7578H37.4609V21.6406L37.3828 21.5625ZM25.7422 27.6172H25.5859V27.7344H25.7422V27.6172ZM30.5078 15.5078L30.4297 15.5859H30.5859V15.5078H30.5078ZM35.7812 16.8359L35.7422 16.9141C35.6901 16.9141 35.6901 16.888 35.7422 16.8359L35.7812 16.7969V16.8359ZM50.7812 11.5234L51.875 11.8359H52.2266C53.7109 12.5651 55.0911 13.4375 56.3672 14.4531C57.6953 15.599 58.3594 16.4583 58.3594 17.0312H58.2812C58.0729 16.6667 57.8646 16.4844 57.6562 16.4844H57.6172C57.5391 16.4844 57.5 16.5365 57.5 16.6406C57.6042 16.9271 57.8385 17.4219 58.2031 18.125H58.2812C58.3333 18.125 58.3984 17.9948 58.4766 17.7344H58.5156C58.5938 17.7604 58.6849 18.138 58.7891 18.8672L59.1406 19.6484L59.0625 20.1562L59.1797 21.5625C58.9974 22.2135 58.8281 23.0729 58.6719 24.1406C58.5677 24.6354 57.3568 26.4844 55.0391 29.6875C53.9974 30.6771 52.9818 31.1719 51.9922 31.1719C51.0807 31.276 50.0521 31.3281 48.9062 31.3281H48.1641C47.7214 31.3281 46.5625 30.9505 44.6875 30.1953C42.3177 28.0859 41.1328 26.4714 41.1328 25.3516C40.7943 24.6484 40.5078 23.9974 40.2734 23.3984C40.2734 23.0599 40.625 21.9401 41.3281 20.0391C41.3281 18.8411 41.6146 18.0078 42.1875 17.5391C43.4115 14.9089 44.9609 13.2031 46.8359 12.4219C48.4766 11.8229 49.7917 11.5234 50.7812 11.5234ZM43.75 23.7891V24.0234C44.1146 24.7266 44.5182 25.4818 44.9609 26.2891C44.9609 26.5495 45.4557 26.9141 46.4453 27.3828C46.9141 27.9297 47.7865 28.3594 49.0625 28.6719L49.7656 28.75C50.9115 28.5156 51.7708 28.2682 52.3438 28.0078L53.75 26.8359C55.2083 25.2734 55.9115 23.9583 55.8594 22.8906V22.5391C55.7031 22.1224 55.625 21.4453 55.625 20.5078C55.625 19.7786 55.6771 19.2057 55.7812 18.7891C55.7812 18.6068 55.2734 18.151 54.2578 17.4219C53.5286 16.3802 52.7734 15.7422 51.9922 15.5078H51.5234C48.4766 15.638 46.9531 15.8854 46.9531 16.25C46.276 16.9271 45.8073 17.5911 45.5469 18.2422C44.7135 19.1276 44.2969 19.7135 44.2969 20C44.0625 21.0677 43.8802 22.3307 43.75 23.7891ZM44.9609 14.3359L44.8438 14.5312V14.6875C45 14.6875 45.7943 14.1406 47.2266 13.0469L47.5391 12.9297L47.7734 12.9688C49.5182 12.7865 50.3906 12.6172 50.3906 12.4609V12.4219L49.7656 12.3047C47.9948 12.3047 46.3932 12.9818 44.9609 14.3359ZM48.0078 15.1562V15.1953L48.0859 15.3125H48.6328L51.4062 14.6875V14.6094L50.6641 14.4531C48.8932 14.6615 48.0078 14.8958 48.0078 15.1562ZM41.875 24.8828L41.7188 25V25.2734C41.7708 26.1589 42.0182 26.6536 42.4609 26.7578L42.5 26.7188V26.6797C42.3177 25.4818 42.1094 24.8828 41.875 24.8828ZM47.9297 13.8281V14.0234C49.9609 13.7891 50.9766 13.6328 50.9766 13.5547L50.6641 13.4375H50.625C49.375 13.4375 48.4766 13.5677 47.9297 13.8281ZM51.25 12.3438C51.3802 12.7083 51.6667 12.8906 52.1094 12.8906L52.5 12.9297L52.5781 12.8906V12.6953C52.5781 12.4089 52.3047 12.2396 51.7578 12.1875C51.4193 12.2135 51.25 12.2656 51.25 12.3438ZM44.1406 28.8281H43.8672V28.9844C44.2057 29.3229 44.8177 29.4922 45.7031 29.4922H46.1328C46.0026 29.3099 45.3385 29.0885 44.1406 28.8281ZM50.5859 30.2734V30.3516C50.5859 30.4297 50.7812 30.4948 51.1719 30.5469C51.6146 30.5469 51.8359 30.4818 51.8359 30.3516V30.2734C51.8099 30.1693 51.7188 30.0651 51.5625 29.9609H51.2109C50.9245 29.9609 50.7161 30.0651 50.5859 30.2734ZM58.0078 22.8516C58.0339 23.6328 58.099 24.0495 58.2031 24.1016H58.2812C58.2812 23.8151 58.3984 23.5026 58.6328 23.1641V23.0469L58.2031 22.4609H58.125C58.0729 22.4609 58.0339 22.5911 58.0078 22.8516ZM55.4297 16.1328H55.2734C55.4297 16.4714 55.8073 16.7578 56.4062 16.9922H56.5625L56.6797 16.875V16.8359C56.237 16.3672 55.8203 16.1328 55.4297 16.1328ZM54.5703 14.9219V15C54.6484 15.3125 55.013 15.638 55.6641 15.9766H55.7812L55.8594 15.8594V15.8203C55.7292 15.638 55.2995 15.3385 54.5703 14.9219ZM51.9922 13.6328L51.9141 13.6719C52.4089 14.0625 52.7995 14.2578 53.0859 14.2578L53.125 14.1797V14.1406C52.7083 13.8021 52.3307 13.6328 51.9922 13.6328ZM46.7969 29.3359V29.4531C46.7969 29.6094 47.1615 29.6875 47.8906 29.6875L47.9297 29.6484V29.5703C47.5911 29.4141 47.2135 29.3359 46.7969 29.3359ZM53.9844 13.2031L53.8672 13.3203C54.1536 13.6849 54.4401 13.8672 54.7266 13.8672C54.7266 13.5807 54.5052 13.3594 54.0625 13.2031H53.9844ZM44.4531 17.2266V17.5H44.5703C44.9089 17.1875 45.0781 16.9401 45.0781 16.7578V16.7188H44.8828C44.7266 16.8229 44.5833 16.9922 44.4531 17.2266ZM53.2812 15.4297C53.4375 15.6901 53.6198 15.8203 53.8281 15.8203L53.8672 15.7422V15.6641C53.8672 15.4297 53.763 15.3125 53.5547 15.3125C53.3724 15.3385 53.2812 15.3776 53.2812 15.4297ZM57.0703 25.7031V25.7422C57.2786 25.7422 57.4609 25.5339 57.6172 25.1172V25.0391H57.5C57.3438 25.0391 57.2005 25.2604 57.0703 25.7031ZM45.2734 15.1953C45.5078 15.1953 45.7292 15.0391 45.9375 14.7266V14.6094C45.4948 14.7396 45.2734 14.9349 45.2734 15.1953ZM57.6953 25H57.8906L58.0469 25.1172C58.0729 24.7005 58.0078 24.5182 57.8516 24.5703H57.7734L57.7344 24.2969L57.6953 25ZM52.6953 30.5469H52.7344C53.2031 30.3906 53.4375 30.2604 53.4375 30.1562L53.3594 30.0781C52.9948 30.2083 52.7734 30.3646 52.6953 30.5469ZM43.3203 27.4609L43.1641 27.5391V27.6172L43.4766 27.9297H43.6328C43.6328 27.7474 43.5286 27.5911 43.3203 27.4609ZM45.9766 29.8828V29.9219H46.4844L46.5625 29.8438L46.4844 29.7266H46.4062C46.1458 29.7266 46.0026 29.7786 45.9766 29.8828ZM58.6328 20.0781L58.5156 20.1953V20.3516L58.6328 20.5078L58.7891 20.3516V20.1953L58.6719 20.0781H58.6328ZM42.1094 18.8281C42.2396 18.8281 42.3568 18.737 42.4609 18.5547V18.4766C42.2266 18.4766 42.1094 18.5938 42.1094 18.8281ZM40.8984 23.0469L40.8203 23.1641C40.8464 23.3984 40.8854 23.5156 40.9375 23.5156L41.0156 23.4766V23.2812L40.9375 23.0469H40.8984ZM51.3281 14.0234V14.0625L51.7188 13.75L51.6406 13.7109C51.3802 13.8672 51.276 13.9714 51.3281 14.0234ZM42.8906 17.5H42.9297C43.0339 17.474 43.0859 17.3698 43.0859 17.1875H43.0078C42.9297 17.2396 42.8906 17.3438 42.8906 17.5ZM43.125 22.1875L42.9688 22.3438V22.4219H43.0859L43.1641 22.3047V22.1875H43.125ZM45.4297 16.2891H45.2734V16.4453H45.3516L45.4297 16.3672V16.2891ZM75.3125 0.546875L77.0312 0.507812C78.099 0.716146 78.6328 0.872396 78.6328 0.976562C78.6849 0.976562 78.737 1.35417 78.7891 2.10938C79.0755 2.44792 79.2188 2.66927 79.2188 2.77344C79.0885 4.02344 78.9714 6.57552 78.8672 10.4297C78.8151 10.4297 78.7891 10.5599 78.7891 10.8203C78.5807 10.9505 78.4766 11.0938 78.4766 11.25V11.875C78.4766 12.3958 78.3464 12.9948 78.0859 13.6719L78.0469 14.2188C78.0469 14.3229 78.1901 14.401 78.4766 14.4531V14.7266C78.0859 18.0339 77.8906 20.1953 77.8906 21.2109C77.8906 22.4089 77.8125 23.0078 77.6562 23.0078V23.0859C77.8125 23.0859 77.9036 23.2552 77.9297 23.5938L77.8906 23.8672V24.0234C77.8906 24.5182 77.7344 25.7161 77.4219 27.6172V28.5156C78.724 28.8021 79.375 29.1797 79.375 29.6484L79.1797 29.8438V30.1953L79.375 30.5078C79.1667 31.0547 78.4245 31.3281 77.1484 31.3281H76.9141L76.7188 31.0156H76.2891L75.2344 31.25L73.75 31.2109C73.6458 31.2109 73.5286 30.5469 73.3984 29.2188L73.4766 27.9688C73.138 27.9688 72.6042 28.2552 71.875 28.8281C69.7135 30.026 67.8125 30.6771 66.1719 30.7812C64.6615 30.3906 63.3073 29.6354 62.1094 28.5156C61.7188 28.125 61.3151 27.513 60.8984 26.6797C60.4297 26.0286 60.1953 25.638 60.1953 25.5078V25.3516H60.3125C60.4948 25.4818 60.8333 25.9245 61.3281 26.6797L61.5234 26.7188L61.5625 26.6797V26.1719C61.5625 25.651 61.2891 25.026 60.7422 24.2969H60.5469C60.3906 24.2969 60.2995 24.5312 60.2734 25H60.1562L60.0781 24.8047C60.1302 23.7891 60.1693 23.125 60.1953 22.8125H60.4297L60.4688 23.1641H60.5469C60.6771 23.112 60.7422 22.9818 60.7422 22.7734V22.0312L60.6641 21.9141C60.5859 21.9141 60.5469 22.0182 60.5469 22.2266L60.3125 22.4609C60.2604 22.4609 60.2214 22.3698 60.1953 22.1875C60.1953 20.2344 60.8333 18.151 62.1094 15.9375C62.7083 14.8958 63.3073 14.0625 63.9062 13.4375C64.7396 12.6823 66.0547 12.3047 67.8516 12.3047H68.2031C70.9635 12.3047 73.2161 13.0208 74.9609 14.4531L75.2344 14.6094H75.3516C75.5859 13.4635 75.8203 10.5599 76.0547 5.89844C76.1849 5.6901 76.2891 5.58594 76.3672 5.58594C75.5339 5.03906 74.9609 4.76562 74.6484 4.76562C74.4141 4.76562 74.2708 3.86719 74.2188 2.07031C74.2708 2.01823 74.4792 1.97917 74.8438 1.95312V1.79688C74.8177 1.69271 74.7135 1.64062 74.5312 1.64062C74.401 1.5625 74.3359 1.47135 74.3359 1.36719C74.3359 1.10677 74.6354 0.976562 75.2344 0.976562V0.820312L75.0781 0.664062V0.585938L75.3125 0.546875ZM75.3516 2.22656L75.3125 2.34375V2.38281H75.7812V2.34375L75.6641 2.22656H75.3516ZM77.5391 2.61719L77.4609 2.73438V2.77344H78.0469V2.65625L77.7734 2.61719H77.5391ZM76.3281 3.35938L76.4062 3.47656C77.0312 3.45052 77.3438 3.3724 77.3438 3.24219L77.1875 3.125H76.7188C76.5365 3.125 76.4062 3.20312 76.3281 3.35938ZM75.3125 3.20312L75.2344 3.32031V3.39844L75.5078 3.47656C75.6641 3.47656 75.7552 3.42448 75.7812 3.32031L75.6641 3.20312H75.3125ZM66.6406 13.3203L66.5234 13.4766V13.6719L66.6406 13.75H66.8359L67.0312 13.5938V13.4766L66.875 13.3203H66.6406ZM68.9453 13.75L69.0234 13.9062H70.7422V13.75C70.5859 13.5938 70.1562 13.5026 69.4531 13.4766H69.0625C68.9844 13.5026 68.9453 13.5938 68.9453 13.75ZM78.2812 13.6719V13.4766H78.4766V13.6719H78.2812ZM63.9844 14.5312V14.6875L64.0625 14.7266H64.2188C65.1302 14.4922 65.5859 14.2188 65.5859 13.9062C65.5599 13.8021 65.4297 13.75 65.1953 13.75H65C64.6094 13.75 64.2708 14.0104 63.9844 14.5312ZM72.3828 14.1406L71.8359 14.1797H71.7578V14.2969C72.3828 14.5573 72.7865 14.6875 72.9688 14.6875H73.0078C73.0078 14.4271 72.7995 14.2448 72.3828 14.1406ZM76.1719 14.3359H76.0156C76.0156 14.5964 76.0677 14.7266 76.1719 14.7266L76.2109 14.6875V14.5703L76.1719 14.3359ZM67.9297 15.0391L67.8516 15.1172L67.9297 15.1562H68.0859L68.2031 15.0781V15.0391H67.9297ZM62.2656 17.7734V17.8906H62.3828C62.5391 17.8385 62.7083 17.5391 62.8906 16.9922C63.6719 15.8984 64.1927 15.3516 64.4531 15.3516L64.6094 15.0781H64.375C64.2708 15.0781 63.8411 15.3385 63.0859 15.8594C62.5911 16.5885 62.3177 17.2266 62.2656 17.7734ZM66.6406 15.3125L66.5625 15.4297H66.9531L67.0703 15.3516V15.3125H66.6406ZM68.6719 15.5078L68.75 15.5469H68.8281L69.6875 15.4297V15.3516L69.4141 15.3125C68.9193 15.3385 68.6719 15.4036 68.6719 15.5078ZM70.7422 15.3125L70.6641 15.4297L70.7812 15.5469H71.0156L71.0938 15.4297C71.0417 15.3516 70.9375 15.3125 70.7812 15.3125H70.7422ZM72.5391 15.3516H72.3828L72.5391 15.5078L72.6172 15.4297L72.5391 15.3516ZM73.3984 15.5859H72.9688C72.9688 15.6901 73.3464 15.8464 74.1016 16.0547H74.1406V15.9375C73.9323 15.7031 73.6849 15.5859 73.3984 15.5859ZM62.5 23.2031V23.7891C62.5 24.1536 62.9948 25.2083 63.9844 26.9531C64.7135 27.3438 65.4948 27.5391 66.3281 27.5391C68.125 27.5391 69.8698 27.1094 71.5625 26.25C72.2656 25.1823 72.8776 24.6484 73.3984 24.6484C73.6849 24.362 73.9974 23.3854 74.3359 21.7188C74.5443 21.25 74.6484 20.7682 74.6484 20.2734V19.8828C74.6484 18.7891 74.5052 18.2422 74.2188 18.2422C73.6198 17.6953 73.3203 17.3698 73.3203 17.2656L73.4766 17.0312C73.4766 16.9271 73.099 16.7708 72.3438 16.5625L72.1094 16.4062L72.1484 16.3281H72.7344V16.2891C72.7344 16.0286 71.3151 15.8854 68.4766 15.8594L67.9297 15.7422C65.8464 15.9505 64.8047 16.224 64.8047 16.5625C63.8411 17.7083 63.2161 19.1146 62.9297 20.7812C62.6432 21.7708 62.5 22.5781 62.5 23.2031ZM73.9062 17.0312L73.75 17.1875V17.5L73.9453 17.6953H74.0625C74.1667 17.6693 74.2188 17.5651 74.2188 17.3828C74.2188 17.2266 74.1406 17.1094 73.9844 17.0312H73.9062ZM61.875 21.25C61.875 21.3281 61.9141 21.3672 61.9922 21.3672C62.1745 21.3672 62.3047 21.1068 62.3828 20.5859V20.3516H62.2656C62.1354 20.3516 62.0052 20.651 61.875 21.25ZM74.2969 27.1484V27.3828C74.4531 27.3828 74.5312 27.5 74.5312 27.7344H74.6094L74.8047 27.5391V27.2266C74.7005 27.1484 74.6484 27.0182 74.6484 26.8359H74.5312C74.375 26.862 74.2969 26.9661 74.2969 27.1484ZM71.3672 27.4609V27.6172H71.4062C71.6667 27.513 71.875 27.3438 72.0312 27.1094V27.0312L71.9531 26.9531H71.875C71.6927 27.0312 71.5234 27.2005 71.3672 27.4609ZM67.4609 27.9688V28.0859H67.9297C69.6484 27.9818 70.599 27.7344 70.7812 27.3438V27.2266H70.6641C68.6589 27.5651 67.5911 27.8125 67.4609 27.9688ZM76.4062 27.3828H76.3672L76.3281 27.6953V28.2031L76.4062 28.3203H76.4844L76.5625 28.2031V27.8125C76.5625 27.5521 76.5104 27.4089 76.4062 27.3828ZM62.5781 27.7344H62.4219V27.8516C62.4219 28.0078 62.8516 28.125 63.7109 28.2031V28.0859C63.112 27.8516 62.7344 27.7344 62.5781 27.7344ZM63.4766 28.3594L63.3594 28.4375C63.3594 28.724 64.1276 29.0104 65.6641 29.2969H65.8594L65.9375 29.2188V29.1797C65.9375 28.8932 65.1953 28.6198 63.7109 28.3594H63.4766ZM74.5312 28.5156L74.3359 28.6719V28.75H74.4531L74.6094 28.5938V28.5156H74.5312ZM68.4375 28.8281V28.9062L68.5547 28.9844H68.7891C69.6224 28.9323 70.0391 28.8542 70.0391 28.75L69.9219 28.6719H69.1797C68.6849 28.6719 68.4375 28.724 68.4375 28.8281ZM76.6797 28.7891H76.4844V28.9062L76.5625 28.9844H76.7578V28.9062L76.6797 28.7891ZM65.8203 29.9609V30.0781L65.8594 30.1953H66.3672C66.7839 30.1953 67.3958 30.1042 68.2031 29.9219V29.8438L67.0703 29.7266C66.237 29.7786 65.8203 29.8568 65.8203 29.9609ZM77.3047 30.0391C77.3307 30.1432 77.4609 30.1953 77.6953 30.1953H78.4766L78.75 30.1172V30.0391C78.75 29.9609 78.5938 29.8958 78.2812 29.8438C77.6302 29.8698 77.3047 29.9349 77.3047 30.0391ZM85.8594 2.42188L87.1875 2.22656C88.099 2.22656 88.8151 2.69531 89.3359 3.63281L89.6094 4.88281C89.5573 5.3776 89.2708 6.02865 88.75 6.83594C88.4115 7.17448 87.8906 7.34375 87.1875 7.34375C85.5469 7.34375 84.5312 7.09635 84.1406 6.60156C83.75 6.08073 83.5677 5.35156 83.5938 4.41406C83.4896 4.41406 83.4375 4.38802 83.4375 4.33594V4.25781C84.2188 3.03385 85.026 2.42188 85.8594 2.42188ZM85.0781 3.39844V3.4375C85.9635 3.33333 86.4062 3.21615 86.4062 3.08594L86.2109 3.00781C85.4557 3.13802 85.0781 3.26823 85.0781 3.39844ZM85.7422 4.53125H85.7812L86.0156 4.57031H86.0938C86.3802 4.57031 86.5625 4.46615 86.6406 4.25781L86.6016 4.17969H86.1328C85.9245 4.17969 85.7943 4.29688 85.7422 4.53125ZM88.5547 4.17969L88.4375 4.375V4.53125H88.4766L88.5938 4.375V4.17969H88.5547ZM87.6172 5.46875V5.58594H87.7734C87.9557 5.58594 88.099 5.49479 88.2031 5.3125V5.19531H88.125C87.9427 5.19531 87.7734 5.28646 87.6172 5.46875ZM86.7578 6.17188L86.6406 6.28906V6.36719H87.3438L87.4609 6.28906L87.3438 6.17188H86.7578ZM81.7969 9.88281H81.9141C82.1224 10.0651 82.3828 10.1562 82.6953 10.1562L83.2031 9.92188C86.7448 9.92188 88.5156 10.026 88.5156 10.2344L88.5547 10.5078V11.1719C88.7891 11.6927 88.9062 12.1875 88.9062 12.6562V13.2812C88.5938 17.526 88.3854 20.9635 88.2812 23.5938C88.2292 23.75 88.1771 24.0234 88.125 24.4141C88.151 24.5182 88.2682 24.5703 88.4766 24.5703H88.5938C90 24.5703 90.7031 24.7396 90.7031 25.0781L90.6641 25.1562V25.3906C90.9766 26.0156 91.1328 27.0052 91.1328 28.3594L91.2891 29.9219L91.1719 30L89.4531 30.0781H85.5469C82.6302 30.0781 81.1719 29.8438 81.1719 29.375C81.1719 29.0885 81.0938 28.8021 80.9375 28.5156C81.0156 28.3333 81.1458 28.1901 81.3281 28.0859H81.4453C81.5495 28.1901 81.6667 28.2422 81.7969 28.2422H81.875C82.6302 28.2422 83.5286 28.1771 84.5703 28.0469V27.9688C82.3307 27.8125 81.2109 27.6302 81.2109 27.4219L81.1719 27.1094V26.6797L81.0938 25.6641C81.0938 25.4036 82.0703 25.2734 84.0234 25.2734C84.2839 25.2734 84.4141 24.6875 84.4141 23.5156L84.8828 13.2422H84.8047C84.0755 13.2422 83.7109 13.1901 83.7109 13.0859C83.7109 13.0599 83.75 13.0208 83.8281 12.9688C82.2656 12.9688 81.4844 12.7865 81.4844 12.4219C81.3802 12.3958 81.3281 12.2917 81.3281 12.1094L81.5234 11.6406C81.5234 11.5365 81.4453 11.3932 81.2891 11.2109C81.4974 11.0026 81.6406 10.5859 81.7188 9.96094L81.7969 9.88281ZM82.4219 10.6641V10.8203H82.6172C83.2943 10.8203 83.6328 10.7682 83.6328 10.6641L83.5547 10.5078H83.4375C82.7604 10.5078 82.4219 10.5599 82.4219 10.6641ZM87.7344 10.3906L87.6172 10.5078L87.7734 10.625H87.8516V10.5078L87.7344 10.3906ZM83.2812 11.2109H82.5781V11.3281C82.5781 11.4323 82.7604 11.4844 83.125 11.4844H83.5547H83.6719H84.9609C85.3516 11.4844 85.5469 11.4193 85.5469 11.2891V11.25C85.5469 11.1198 84.7917 11.1068 83.2812 11.2109ZM86.7578 11.25L86.4062 11.2109V11.2891C86.5885 11.2891 86.8099 11.4193 87.0703 11.6797H87.1484C87.2005 11.6797 87.2266 11.6406 87.2266 11.5625H87.3047C87.4089 11.5625 87.474 11.6797 87.5 11.9141H87.5781L88.125 11.5234V11.2891L87.3047 11.25H86.7578ZM86.6016 13.4375L86.7969 14.0234L86.5234 14.7266C86.6276 14.9609 86.7188 15.0781 86.7969 15.0781H86.8359L86.9141 14.8438V14.6094C86.9141 13.6719 87.0573 13.2031 87.3438 13.2031L87.4609 13.0469V12.8906L87.3438 12.7734H87.1094C86.7708 12.7734 86.6016 12.9948 86.6016 13.4375ZM85.3906 17.1484L85.2734 22.1875C85.2995 22.3698 85.3385 22.4609 85.3906 22.4609C85.4688 22.4609 85.5208 22.3438 85.5469 22.1094L85.5078 21.5234C85.638 21.3932 85.7812 20.8724 85.9375 19.9609V19.7266L85.8594 19.1797C86.0156 19.0495 86.0938 18.9583 86.0938 18.9062C85.9896 18.6198 85.9375 18.3333 85.9375 18.0469V17.9688C86.0417 17.9688 86.1719 16.5104 86.3281 13.5938C86.25 13.3854 86.1719 13.2812 86.0938 13.2812C85.7031 13.2812 85.4688 14.5703 85.3906 17.1484ZM87.3047 13.7109L87.1484 13.75V13.9844C87.1484 14.1406 87.2135 14.2578 87.3438 14.3359H87.4609L87.5781 14.1797V13.9844C87.526 13.8542 87.4349 13.763 87.3047 13.7109ZM87.1094 20.0781H86.9141C86.7057 21.0417 86.6016 21.7578 86.6016 22.2266H86.6406C86.7708 22.2266 86.9401 21.6927 87.1484 20.625V20.3516L87.1094 20.0781ZM86.3672 23.75V24.0234H86.4453C86.5755 23.9714 86.6406 23.8151 86.6406 23.5547V23.2812H86.5234C86.4714 23.2812 86.4193 23.4375 86.3672 23.75ZM86.4453 24.3359L86.3281 24.4922V24.6875H86.4453L86.6016 24.5703V24.4531L86.4844 24.3359H86.4453ZM89.5703 25.2734L89.4531 25.3125C89.6094 25.4427 89.8958 25.5208 90.3125 25.5469V25.4297C90.3125 25.3255 90.1432 25.2734 89.8047 25.2734H89.5703ZM89.7266 26.9141L89.2578 27.0312C89.3099 27.3438 89.5443 27.5 89.9609 27.5H90.0781V27.3828L90 27.2656C90 27.2396 90.1042 27.1615 90.3125 27.0312V26.8359C90.3125 26.6536 90.2604 26.5495 90.1562 26.5234H90C89.9219 26.5495 89.8307 26.6797 89.7266 26.9141ZM82.2656 26.5625L81.9922 26.6406V26.6797C82.2005 26.888 83.0078 27.0052 84.4141 27.0312H84.6875C84.8958 27.0312 85.026 26.9661 85.0781 26.8359V26.7578C83.9844 26.6276 83.0469 26.5625 82.2656 26.5625ZM85.9375 27.0312L86.0938 27.2266C86.3281 27.2266 86.4453 27.0964 86.4453 26.8359H86.25C86.0938 26.8359 85.9896 26.901 85.9375 27.0312ZM89.6094 27.8125L89.4922 27.9688V28.0469H89.5703L89.6875 27.8906V27.8125H89.6094ZM86.6016 28.0469L86.0938 28.0859H85.5469V28.2422L86.0938 28.2812L87.2266 28.2031V28.0859H87.0703L86.6016 28.0469ZM90.5859 29.375L90.4297 29.4922V29.6094H90.6641L90.7031 29.4922L90.6641 29.375H90.5859ZM102.734 11.5234L103.828 11.8359H104.18C105.664 12.5651 107.044 13.4375 108.32 14.4531C109.648 15.599 110.312 16.4583 110.312 17.0312H110.234C110.026 16.6667 109.818 16.4844 109.609 16.4844H109.57C109.492 16.4844 109.453 16.5365 109.453 16.6406C109.557 16.9271 109.792 17.4219 110.156 18.125H110.234C110.286 18.125 110.352 17.9948 110.43 17.7344H110.469C110.547 17.7604 110.638 18.138 110.742 18.8672L111.094 19.6484L111.016 20.1562L111.133 21.5625C110.951 22.2135 110.781 23.0729 110.625 24.1406C110.521 24.6354 109.31 26.4844 106.992 29.6875C105.951 30.6771 104.935 31.1719 103.945 31.1719C103.034 31.276 102.005 31.3281 100.859 31.3281H100.117C99.6745 31.3281 98.5156 30.9505 96.6406 30.1953C94.2708 28.0859 93.0859 26.4714 93.0859 25.3516C92.7474 24.6484 92.4609 23.9974 92.2266 23.3984C92.2266 23.0599 92.5781 21.9401 93.2812 20.0391C93.2812 18.8411 93.5677 18.0078 94.1406 17.5391C95.3646 14.9089 96.9141 13.2031 98.7891 12.4219C100.43 11.8229 101.745 11.5234 102.734 11.5234ZM95.7031 23.7891V24.0234C96.0677 24.7266 96.4714 25.4818 96.9141 26.2891C96.9141 26.5495 97.4089 26.9141 98.3984 27.3828C98.8672 27.9297 99.7396 28.3594 101.016 28.6719L101.719 28.75C102.865 28.5156 103.724 28.2682 104.297 28.0078L105.703 26.8359C107.161 25.2734 107.865 23.9583 107.812 22.8906V22.5391C107.656 22.1224 107.578 21.4453 107.578 20.5078C107.578 19.7786 107.63 19.2057 107.734 18.7891C107.734 18.6068 107.227 18.151 106.211 17.4219C105.482 16.3802 104.727 15.7422 103.945 15.5078H103.477C100.43 15.638 98.9062 15.8854 98.9062 16.25C98.2292 16.9271 97.7604 17.5911 97.5 18.2422C96.6667 19.1276 96.25 19.7135 96.25 20C96.0156 21.0677 95.8333 22.3307 95.7031 23.7891ZM96.9141 14.3359L96.7969 14.5312V14.6875C96.9531 14.6875 97.7474 14.1406 99.1797 13.0469L99.4922 12.9297L99.7266 12.9688C101.471 12.7865 102.344 12.6172 102.344 12.4609V12.4219L101.719 12.3047C99.9479 12.3047 98.3464 12.9818 96.9141 14.3359ZM99.9609 15.1562V15.1953L100.039 15.3125H100.586L103.359 14.6875V14.6094L102.617 14.4531C100.846 14.6615 99.9609 14.8958 99.9609 15.1562ZM93.8281 24.8828L93.6719 25V25.2734C93.724 26.1589 93.9714 26.6536 94.4141 26.7578L94.4531 26.7188V26.6797C94.2708 25.4818 94.0625 24.8828 93.8281 24.8828ZM99.8828 13.8281V14.0234C101.914 13.7891 102.93 13.6328 102.93 13.5547L102.617 13.4375H102.578C101.328 13.4375 100.43 13.5677 99.8828 13.8281ZM103.203 12.3438C103.333 12.7083 103.62 12.8906 104.062 12.8906L104.453 12.9297L104.531 12.8906V12.6953C104.531 12.4089 104.258 12.2396 103.711 12.1875C103.372 12.2135 103.203 12.2656 103.203 12.3438ZM96.0938 28.8281H95.8203V28.9844C96.1589 29.3229 96.7708 29.4922 97.6562 29.4922H98.0859C97.9557 29.3099 97.2917 29.0885 96.0938 28.8281ZM102.539 30.2734V30.3516C102.539 30.4297 102.734 30.4948 103.125 30.5469C103.568 30.5469 103.789 30.4818 103.789 30.3516V30.2734C103.763 30.1693 103.672 30.0651 103.516 29.9609H103.164C102.878 29.9609 102.669 30.0651 102.539 30.2734ZM109.961 22.8516C109.987 23.6328 110.052 24.0495 110.156 24.1016H110.234C110.234 23.8151 110.352 23.5026 110.586 23.1641V23.0469L110.156 22.4609H110.078C110.026 22.4609 109.987 22.5911 109.961 22.8516ZM107.383 16.1328H107.227C107.383 16.4714 107.76 16.7578 108.359 16.9922H108.516L108.633 16.875V16.8359C108.19 16.3672 107.773 16.1328 107.383 16.1328ZM106.523 14.9219V15C106.602 15.3125 106.966 15.638 107.617 15.9766H107.734L107.812 15.8594V15.8203C107.682 15.638 107.253 15.3385 106.523 14.9219ZM103.945 13.6328L103.867 13.6719C104.362 14.0625 104.753 14.2578 105.039 14.2578L105.078 14.1797V14.1406C104.661 13.8021 104.284 13.6328 103.945 13.6328ZM98.75 29.3359V29.4531C98.75 29.6094 99.1146 29.6875 99.8438 29.6875L99.8828 29.6484V29.5703C99.5443 29.4141 99.1667 29.3359 98.75 29.3359ZM105.938 13.2031L105.82 13.3203C106.107 13.6849 106.393 13.8672 106.68 13.8672C106.68 13.5807 106.458 13.3594 106.016 13.2031H105.938ZM96.4062 17.2266V17.5H96.5234C96.862 17.1875 97.0312 16.9401 97.0312 16.7578V16.7188H96.8359C96.6797 16.8229 96.5365 16.9922 96.4062 17.2266ZM105.234 15.4297C105.391 15.6901 105.573 15.8203 105.781 15.8203L105.82 15.7422V15.6641C105.82 15.4297 105.716 15.3125 105.508 15.3125C105.326 15.3385 105.234 15.3776 105.234 15.4297ZM109.023 25.7031V25.7422C109.232 25.7422 109.414 25.5339 109.57 25.1172V25.0391H109.453C109.297 25.0391 109.154 25.2604 109.023 25.7031ZM97.2266 15.1953C97.4609 15.1953 97.6823 15.0391 97.8906 14.7266V14.6094C97.4479 14.7396 97.2266 14.9349 97.2266 15.1953ZM109.648 25H109.844L110 25.1172C110.026 24.7005 109.961 24.5182 109.805 24.5703H109.727L109.688 24.2969L109.648 25ZM104.648 30.5469H104.688C105.156 30.3906 105.391 30.2604 105.391 30.1562L105.312 30.0781C104.948 30.2083 104.727 30.3646 104.648 30.5469ZM95.2734 27.4609L95.1172 27.5391V27.6172L95.4297 27.9297H95.5859C95.5859 27.7474 95.4818 27.5911 95.2734 27.4609ZM97.9297 29.8828V29.9219H98.4375L98.5156 29.8438L98.4375 29.7266H98.3594C98.099 29.7266 97.9557 29.7786 97.9297 29.8828ZM110.586 20.0781L110.469 20.1953V20.3516L110.586 20.5078L110.742 20.3516V20.1953L110.625 20.0781H110.586ZM94.0625 18.8281C94.1927 18.8281 94.3099 18.737 94.4141 18.5547V18.4766C94.1797 18.4766 94.0625 18.5938 94.0625 18.8281ZM92.8516 23.0469L92.7734 23.1641C92.7995 23.3984 92.8385 23.5156 92.8906 23.5156L92.9688 23.4766V23.2812L92.8906 23.0469H92.8516ZM103.281 14.0234V14.0625L103.672 13.75L103.594 13.7109C103.333 13.8672 103.229 13.9714 103.281 14.0234ZM94.8438 17.5H94.8828C94.987 17.474 95.0391 17.3698 95.0391 17.1875H94.9609C94.8828 17.2396 94.8438 17.3438 94.8438 17.5ZM95.0781 22.1875L94.9219 22.3438V22.4219H95.0391L95.1172 22.3047V22.1875H95.0781ZM97.3828 16.2891H97.2266V16.4453H97.3047L97.3828 16.3672V16.2891Z" fill="white"/>
</svg>
